<svg version="1.1" xmlns="http://www.w3.org/2000/svg" viewBox="0 0 2048 2048" width="1000" height="1000" preserveAspectRatio="none" display="block"><path fill="#f7f7f7" d="M 0 0 L 2048 0 L 2048 2048 L 0 2048 L 0 0 z" data-c-fill="f7f6f4" fill-opacity="1"/><path fill="rgb(230,43,45)" d="M 1003.03 340.594 C 1209.26 328.795 1386 486.439 1397.75 692.673 C 1409.5 898.908 1251.81 1075.61 1045.58 1087.31 C 839.407 1099.01 662.776 941.392 651.028 735.225 C 639.28 529.057 796.862 352.39 1003.03 340.594 z" data-c-fill="e62b2d"/><path fill="#f7f7f7" d="M 763.843 924.818 C 652.852 787.819 666.924 588.265 796.041 468.197 C 925.159 348.129 1125.21 348.57 1253.8 469.206 C 1382.38 589.842 1395.58 789.456 1283.98 925.964 C 1274.67 937.359 1264.61 948.129 1253.88 958.203 C 1125.11 1079.1 924.633 1079.37 795.536 958.82 C 784.197 948.233 773.608 936.872 763.843 924.818 z" data-c-fill="f7f6f4" fill-opacity="1"/><path fill="rgb(0,62,127)" d="M 963.906 686.95 C 973.905 686.793 983.906 686.77 993.906 686.882 L 1082.09 686.949 C 1092.15 686.785 1102.22 686.757 1112.28 686.865 L 1203.52 686.937 C 1217.16 686.784 1270.27 682.724 1278.9 691.499 C 1281.51 694.153 1282.95 697.599 1283.44 701.254 C 1286.04 720.7 1283.95 752.072 1283.92 773.008 L 1283.98 925.964 C 1274.67 937.359 1264.61 948.129 1253.88 958.203 C 1125.11 1079.1 924.633 1079.37 795.536 958.82 C 784.197 948.233 773.608 936.872 763.843 924.818 L 763.801 763.336 C 763.798 743.455 763.069 718.55 764.632 698.689 C 765.037 693.529 771.399 689.669 775.491 687.137 C 804.479 685.452 845.087 686.774 874.853 686.919 L 963.906 686.95 z" data-c-fill="003e7f"/><path fill="#f7f7f7" d="M795.536 958.82 1092.74 958.487C1145.79 958.456 1201.04 959.171 1253.88 958.203 1125.11 1079.1 924.633 1079.37 795.536 958.82zM852.397 719.166 1196.18 719.097C1202.34 749.15 1220.27 769.868 1252.06 772.534L1252.07 869.393C1219.36 873.129 1201.96 893.308 1196.56 924.737L852.377 924.773C849.217 894.501 826.501 871.947 796.005 869.728L795.975 772.412C828.719 770.358 846.129 749.265 852.397 719.166z" data-c-fill="f7f6f4" fill-opacity="1"/><path fill="rgb(0,62,127)" d="M 1013.12 756.772 C 1049.2 750.857 1083.22 775.423 1088.94 811.539 C 1094.67 847.656 1069.92 881.538 1033.78 887.075 C 997.899 892.571 964.321 868.049 958.637 832.2 C 952.953 796.35 977.299 762.644 1013.12 756.772 z" data-c-fill="003e7f"/><path fill="rgb(230,43,45)" d="M1112.28 686.865C1111.95 643.261 1111.87 599.656 1112.03 556.051 1112.03 533.061 1111.77 509.987 1112.13 487.05 1112.28 477.274 1113.73 470.151 1124.79 469.744 1145.79 468.972 1166.97 470.306 1188.05 469.26 1192.7 469.029 1197.59 470.67 1201.12 473.7 1203.56 479.552 1203.92 488.252 1203.79 494.629 1202.54 558.303 1205.65 623.444 1203.52 686.937L1112.28 686.865zM993.906 686.882 993.844 609.784C993.835 596.636 991.659 569.632 998.694 559.453 1002 557.389 1004.78 556.477 1008.67 556.017 1015.85 555.167 1064.94 555.295 1070.7 556.56 1074.74 557.449 1078.12 560.014 1080.17 563.613 1084.57 571.351 1082 669.679 1082.09 686.949L993.906 686.882zM874.853 686.919C874.647 679.434 872.313 641.961 877.444 638.184 892.422 627.16 927.58 633.837 946.225 632.304 954.948 631.587 959.402 635.645 963.97 641.809 964.061 656.856 964.039 671.904 963.906 686.95L874.853 686.919z" data-c-fill="e62b2d"/><path fill="rgb(0,62,127)" d="M 782.626 1213.24 C 841.84 1208.16 872.412 1258.54 867.814 1313.37 C 863.244 1367.84 824.344 1405.21 768.382 1388.91 C 755.967 1385.3 747.026 1376.9 738.793 1367.19 C 739.087 1378.72 738.877 1391.21 738.885 1402.82 L 739.352 1449.88 L 695.956 1450 L 695.959 1217.98 L 737.062 1218.02 C 737.751 1225.83 737.901 1233.51 738.124 1241.35 C 748.418 1223.2 763.25 1216.64 782.626 1213.24 z" data-c-fill="003e7f"/><path fill="#f7f7f7" d="M 777.679 1250.31 C 831.901 1247.73 845.226 1338.86 788.106 1354.43 C 766.62 1357.08 741.33 1345.67 739.882 1321.42 C 737.828 1287.03 734.403 1256.51 777.679 1250.31 z" data-c-fill="f7f6f4" fill-opacity="1"/><path fill="rgb(0,62,127)" d="M272.253 1162.07C286.082 1161.82 300.575 1162.03 314.459 1162.02 319.895 1169.29 325.617 1177.42 330.605 1185 360.006 1229.7 394.368 1273.53 422.241 1319.02 421.282 1267.41 420.355 1213.48 420.233 1162.05L464.041 1162.06 464.059 1383.25C463.995 1385.3 464.065 1384.56 463.162 1386.54 457.471 1388.29 427.719 1387.38 420.197 1387.29 386.495 1336.91 349.579 1285.55 314.892 1235.63 317.103 1285.23 315.358 1337.53 314.974 1387.46 300.896 1387.18 286.39 1387.32 272.276 1387.3 270.67 1314.55 272.122 1235.3 272.253 1162.07zM962.332 1161.93 1009.06 1161.95C1011.99 1172.42 1026.78 1205.85 1031.82 1218.01L1075.56 1324.5C1083.15 1343.01 1094.67 1369.11 1100.53 1387.35 1086.46 1388.09 1066.78 1387.37 1051.83 1387.59 1045.93 1371.01 1039.73 1354.53 1033.22 1338.17L1013.25 1338.12 937.807 1338.1C931.379 1353.48 925.451 1371.71 919.393 1387.59 903.592 1387.17 887.184 1387.41 871.332 1387.44 899.743 1312.79 932.405 1236.33 962.332 1161.93z" data-c-fill="003e7f"/><path fill="#f7f7f7" d="M 983.419 1211.71 C 986.284 1214.58 1014.18 1288.85 1017.72 1297.99 L 987.5 1298 L 952.826 1297.99 C 962.937 1271.41 975.078 1238.65 983.419 1211.71 z" data-c-fill="f7f6f4" fill-opacity="1"/><path fill="rgb(0,62,127)" d="M 573.859 1214.34 C 610.4 1210.75 645.251 1223.72 659.346 1259.95 C 666.938 1279.46 666.159 1297.42 665.984 1317.94 L 542.102 1317.65 C 543.831 1323.41 545.539 1328.53 548.7 1333.68 C 555.227 1344.58 566.098 1352.16 578.575 1354.53 C 599.018 1358.61 615.617 1350.44 631.91 1339.56 C 634.64 1342.08 637.976 1344.81 640.831 1347.27 C 646.353 1351.75 652.793 1356.35 658.551 1360.63 C 606.699 1416.6 510.342 1398.24 498.441 1318.31 C 490.493 1264.93 519.825 1222 573.859 1214.34 z" data-c-fill="003e7f"/><path fill="#f7f7f7" d="M 575.642 1250.17 C 603.03 1248.64 617.656 1258.67 624.626 1285.18 L 590.635 1285.12 L 541.614 1285.08 C 549.08 1266.48 555.558 1256.69 575.642 1250.17 z" data-c-fill="f7f6f4" fill-opacity="1"/><path fill="rgb(0,62,127)" d="M 1687.96 1213.4 C 1710.58 1210.68 1735.94 1216.26 1752.36 1232.82 C 1759.84 1240.35 1765.21 1249.73 1767.93 1260 C 1772.65 1277.3 1771.46 1304.59 1771.43 1323.26 L 1771.25 1387.36 C 1757.69 1387.22 1743.92 1387.36 1730.34 1387.39 C 1729.22 1380.38 1728.99 1377.71 1728.98 1370.61 C 1724.41 1374.54 1720.11 1378.47 1714.95 1381.63 C 1684.19 1400.49 1638.7 1394.93 1619.55 1362.71 C 1611.3 1344.66 1614.21 1319.08 1628.87 1305.18 C 1654.91 1280.5 1695.4 1283.45 1728.52 1283.7 C 1724.85 1259.44 1713.38 1247.89 1686.97 1249.83 C 1670.89 1251.01 1659.8 1260.19 1650.01 1272.32 C 1641.92 1266.19 1631.31 1256.65 1623.4 1249.89 C 1640.33 1224.99 1658.65 1216.6 1687.96 1213.4 z" data-c-fill="003e7f"/><path fill="#f7f7f7" d="M 1719.06 1310.45 C 1720.93 1310.3 1725.6 1309.7 1726.58 1311.33 C 1729.7 1316.46 1728.01 1328.25 1727.88 1334.23 C 1723.53 1340.24 1718.07 1345.36 1711.8 1349.33 C 1698.45 1357.62 1685.09 1357.99 1670.44 1354.41 C 1664.39 1351.58 1657.48 1346.76 1656.92 1339.52 C 1654.61 1309.56 1699.75 1311.29 1719.06 1310.45 z" data-c-fill="f7f6f4" fill-opacity="1"/><path fill="rgb(0,62,127)" d="M 1422.01 1153.96 L 1465.67 1154.02 C 1465.49 1182.23 1465.56 1210.45 1465.87 1238.67 C 1488.45 1207.05 1540.81 1205.13 1567.53 1232.14 C 1589.21 1254.04 1585.29 1290.38 1585.24 1318.8 L 1585.11 1387.27 C 1570.76 1387.36 1556.41 1387.38 1542.06 1387.32 L 1542.02 1319.5 C 1542.11 1301.83 1544.48 1276.82 1531.67 1262.79 C 1518.03 1247.85 1491.78 1248.56 1477.48 1262.48 C 1472.07 1267.71 1468.37 1274.45 1466.85 1281.81 C 1465.02 1290.96 1465.66 1311.53 1465.68 1321.88 C 1465.8 1343.72 1465.77 1365.56 1465.61 1387.41 L 1421.96 1387.37 L 1422.01 1153.96 z" data-c-fill="003e7f"/><path fill="rgb(230,43,45)" d="M 916.511 1475.25 C 945.744 1473.76 948.602 1492.34 961.861 1513.33 C 964.088 1513.38 966.314 1513.44 968.539 1513.52 C 974.181 1513.66 976.013 1514.22 979.898 1518.48 L 979.218 1521.05 C 974.103 1525.35 970.216 1524.38 963.581 1524.18 C 964.041 1550.56 963.761 1577.73 963.79 1604.16 L 948.308 1604.19 C 948.142 1577.65 948.158 1551.12 948.357 1524.58 C 928.488 1525.02 907.149 1524.7 887.171 1524.72 L 887.309 1542.84 C 919.479 1526.11 946.295 1557.54 921.738 1583.47 C 915.242 1590.34 896.723 1599.04 898.189 1582.08 C 898.729 1575.84 923.109 1576.6 915.137 1558.87 C 911.429 1548.53 896.528 1547.65 892.061 1553.5 C 884.713 1563.13 887.754 1591.61 887.87 1604.38 L 871.966 1604.28 L 871.921 1586.69 C 818.172 1613.52 813.246 1519.11 868.012 1540.45 L 868.086 1553.61 C 865.211 1552.5 862.243 1551.24 859.187 1550.75 C 855.606 1550.18 851.401 1550.98 848.603 1553.43 C 845.701 1555.96 844.318 1559.13 844.175 1562.94 C 844.023 1566.97 845.397 1571.19 848.203 1574.15 C 850.461 1576.53 853.432 1577.87 856.722 1577.95 C 860.961 1578.04 865.724 1575.93 868.612 1572.85 C 874.351 1566.74 871.919 1534.15 871.889 1524.53 C 852.492 1524.14 833.091 1524.03 813.691 1524.2 L 813.841 1604.13 L 798.004 1604.06 L 798.068 1524.24 L 777.186 1524.16 L 777.151 1592.25 L 777.202 1604.28 L 762.109 1604.42 L 762.146 1584.21 C 744.829 1595.28 722.24 1593.8 715.674 1571.73 C 713.443 1564.29 714.423 1556.26 718.379 1549.57 C 728.71 1531.86 747.03 1534.65 762.235 1543.74 L 762.013 1524.19 C 740.049 1524.02 718.083 1524 696.118 1524.14 L 696.122 1599.49 C 696.427 1599.66 696.733 1599.83 697.038 1600 L 698.528 1600.89 C 735.738 1622.66 688.949 1668.49 638.349 1621.58 C 641.734 1618.73 645.553 1615.95 649.098 1613.26 C 660.288 1623.81 673.222 1634.23 689.684 1628.35 C 697.144 1625.68 698.254 1618.74 693.81 1613.03 C 689.752 1607.83 680.56 1613.32 673.46 1612.86 C 670.556 1611.75 669.926 1609.98 668.172 1607.26 L 667.441 1606.12 C 673.158 1601.59 675.369 1600.53 681.863 1597.92 L 681.757 1581.96 C 680.968 1582.51 680.172 1583.04 679.369 1583.57 C 650.732 1602.27 635.442 1580.73 622.288 1558.05 C 624.708 1554.45 625.131 1553.54 628.351 1550.77 C 641.999 1549.2 656.904 1546.2 643.158 1527.69 C 639.287 1522.47 625.208 1523.94 618.616 1524.12 L 618.405 1512.77 C 726.371 1510.36 838.68 1515.35 946.797 1513.36 C 942.481 1505.93 934.193 1489.59 924.952 1489.4 C 920.502 1489.3 919.77 1491.01 915.067 1488.64 C 912.763 1485.35 912.988 1477.89 916.511 1475.25 z" data-c-fill="e62b2d"/><path fill="#f7f7f7" d="M658.332 1524.37C665.344 1523.91 674.136 1524.15 681.307 1524.17 681.344 1537.13 681.204 1550.09 680.887 1563.04 680.181 1564.2 679.458 1565.35 678.72 1566.49 673.305 1574.76 669.383 1575.63 660.377 1577.49L659.235 1577.24C649.044 1574.93 647.076 1571.97 641.748 1563.47 662.282 1555.97 666.083 1544.08 658.332 1524.37zM742.15 1550.12C763.943 1552.64 770.485 1563.54 750.093 1576.8 729.975 1581.99 720.86 1558.4 742.15 1550.12z" data-c-fill="f7f6f4" fill-opacity="1"/><path fill="rgb(230,43,45)" d="M1267.17 1474.08C1271.17 1473.89 1275.76 1473.99 1279.81 1473.97 1283.91 1476.76 1290.67 1481.05 1288.21 1486.8 1286.52 1487.76 1285.67 1487.6 1283.55 1487.93 1278.93 1485.92 1274.8 1483.79 1269.98 1486.33 1259.17 1492.03 1270.2 1506.31 1274.41 1511.97L1401.69 1512.02 1401.67 1524.13 1352.66 1524.37 1352.85 1542.91C1363.01 1537.47 1373.68 1534.97 1384.29 1541.13 1390.24 1544.6 1394.5 1550.37 1396.04 1557.08 1401.26 1579.12 1384.01 1588.22 1366.07 1592.72L1363.29 1578.46C1400.46 1575.03 1374.75 1538.4 1356.61 1553.66 1350.49 1558.81 1353.04 1595.79 1353.13 1604.74L1337.17 1604.56 1337.55 1586.33C1330.59 1589.73 1328.47 1590.59 1321.03 1592.43 1302.82 1588.38 1296.11 1580.02 1294.54 1561.24 1292.5 1536.74 1340.34 1525.71 1333.3 1551.75 1327.85 1554.69 1319.61 1548.02 1314.1 1552.34 1309.05 1555.87 1308.59 1569.41 1313.06 1573.63 1321.59 1581.69 1329.54 1577.15 1336.13 1570.49L1337.1 1569.49C1337.04 1554.43 1337.24 1539.36 1337.72 1524.31 1317.81 1524.12 1297.89 1524.1 1277.98 1524.26L1278.03 1604.7 1262.77 1604.3 1262.78 1583.46C1240.73 1599.15 1209.81 1594.84 1199.28 1567.51 1197.35 1562.5 1197.2 1557.27 1196.85 1551.96 1208.3 1552.07 1225.81 1553.82 1232.36 1541.64 1237.74 1531.62 1227.56 1520.54 1217.94 1524.44 1214.03 1532.33 1222.94 1540.51 1217.97 1546.24 1205.59 1546.58 1195.49 1532.07 1205.51 1520.08 1209.89 1514.89 1216.27 1511.81 1223.05 1511.59 1238.35 1511 1246.6 1522.39 1247.13 1536.79 1248 1560.12 1224.31 1558.62 1216.55 1566.32L1216.78 1568.57C1226.96 1581.39 1242.17 1579.7 1254.78 1571.97 1257.12 1570.14 1260.28 1566.82 1262.49 1564.62 1263.01 1550.32 1262.66 1534.39 1262.63 1519.97 1246.92 1507.18 1228.59 1493.74 1208.08 1490.36 1198.46 1488.78 1182.21 1486.81 1177.23 1497.48 1174.78 1502.73 1178.11 1509.12 1180.2 1513.97 1186.4 1513.69 1194.97 1512.14 1197.54 1519.56 1194.82 1526.62 1186.32 1525.1 1180.26 1524.86L1180.29 1604.97 1165.5 1604.65 1165.47 1524.8 1144.1 1524.82 1143.94 1604.5 1128.08 1604.78C1127.68 1578.43 1128.02 1551.24 1128.03 1524.83L1107.09 1524.78 1107.14 1604.92 1092.02 1604.7 1091.89 1568.13 1076.13 1568.01C1076.13 1568.39 1076.12 1568.76 1076.12 1569.14L1076.07 1571.01C1075.4 1603.25 1043.56 1604.43 1020.58 1591.3L1025.68 1580.62C1037.37 1586.59 1057.37 1591.14 1061.77 1575.56 1066.81 1557.69 1044.81 1559.76 1037.99 1557.86 1036.13 1554.18 1036.18 1554.38 1035.87 1550.27 1039.89 1542.56 1048.26 1550.19 1056.32 1543.28 1059.01 1538.39 1059 1529.09 1053.07 1526.38 1046.18 1523.22 1039.42 1526.07 1032.92 1528.8 1030.95 1525.4 1029.57 1521.92 1028.02 1518.32 1046.12 1508.63 1061.04 1508.47 1072.01 1527.32 1072.25 1531.71 1072.01 1537.35 1071.94 1541.84 1068.35 1546.55 1066.17 1547.51 1068.19 1553.14 1073.39 1557.37 1084.64 1555.95 1091.85 1555.78L1091.85 1524.84 1082.88 1524.95C1078.4 1522.51 1078.74 1518 1081.06 1513.95 1087.95 1512.93 1104.47 1513.37 1111.97 1513.44 1129.77 1513.74 1147.58 1513.82 1165.38 1513.68 1154.59 1493.1 1164.21 1480.38 1186.42 1476.7 1211.04 1472.62 1233.56 1484.05 1253.01 1498.18 1250.88 1484.9 1255.23 1479.26 1267.17 1474.08zM280.411 1476.19C311.045 1474.52 313.812 1490.93 327.27 1514.1 387.747 1516.34 454.29 1514.76 515.451 1515.03 509.174 1507.61 504.427 1500.16 507.368 1489.99 511.124 1477.01 525.8 1473.37 537.392 1478.05 554.035 1484.77 560.237 1500.08 566.998 1515.17 573.345 1515.03 583.837 1513.12 585.77 1521.28 582.552 1527.41 575.045 1526.29 569.236 1526.2 569.758 1552.79 569.864 1579.4 569.554 1606L553.991 1605.96 553.904 1526.15 534.072 1526.19 534.072 1606.01 519.136 1606.03C519.115 1599.57 520.116 1554.77 518.114 1552 503.942 1553.59 509.493 1568.36 506.225 1577.26 502.424 1578.61 497.355 1578.06 493.184 1577.94 493.566 1573.41 494.586 1567.17 492.967 1562.86 488.353 1550.57 475.09 1554.06 474.548 1566.36 473.939 1580.2 485.313 1591.44 494.117 1600.88L482.019 1609.87C465.724 1589.38 446.687 1565.7 471.913 1542.98 493.143 1533.4 492.522 1547.76 498.822 1549.33 504.592 1540.61 504.643 1540.62 515.124 1537.69 519.25 1536.54 520.595 1530.41 517.445 1526.74 513.104 1525.28 452.705 1526.16 443.316 1526.16L443.286 1605.9 428.094 1606C427.55 1579.95 428.014 1552.31 428.021 1526.14L406.651 1526.21 406.707 1605.87 391.984 1605.97 391.864 1576.37C345.922 1597.38 349.527 1556.37 349.779 1526.22L330.007 1526.04 330.071 1604.8 314.881 1604.86 315.102 1560.16C309.64 1560.07 291.161 1559.1 287.512 1561.2 288.372 1562.64 289.287 1563.72 290.384 1564.99 291.741 1570.95 290.03 1574.66 284.626 1577.47 272.067 1578.13 265.851 1557.59 273.398 1551.3 280.072 1545.75 305.97 1547.69 315.118 1547.7L315.043 1526.15C306.654 1526 268.016 1527.67 264.416 1524.21 264.307 1520.77 263.696 1517.48 265.397 1514.7 271.474 1513.4 304.3 1514.08 312.129 1514.11 303.349 1496.54 300.588 1489.36 280.037 1490.24 280.016 1485.49 280.221 1480.93 280.411 1476.19z" data-c-fill="e62b2d"/><path fill="#f7f7f7" d="M364.098 1526.15 391.839 1526.2C391.919 1539.15 395.122 1554.33 387.162 1563.78 382.678 1567.48 372.95 1571.2 368.735 1565.77 361.608 1556.58 363.871 1537.37 364.098 1526.15zM525.491 1490.04C527.222 1490.08 530.349 1490.07 531.932 1490.46 539.692 1492.36 551.958 1506.84 550.287 1514.59L547.25 1515 532.943 1514.76C524.057 1507.63 513.969 1500.46 525.491 1490.04z" data-c-fill="f7f6f4" fill-opacity="1"/><path fill="rgb(0,62,127)" d="M1299.62 1176.04 1343.43 1176.1 1343.26 1217.67 1389.77 1217.83 1389.81 1253.39C1374.69 1253.56 1359.12 1253.29 1343.96 1253.22 1344.05 1268.76 1344.06 1284.3 1343.97 1299.85 1343.55 1343.16 1341.7 1357.4 1391.85 1349.55L1391.77 1380.25C1391.89 1383.52 1392.31 1384.34 1390.52 1387.01 1373.25 1398.07 1329.39 1393.34 1314.54 1377.64 1296.09 1358.13 1299.25 1331.47 1299.09 1306.7 1298.98 1288.63 1299.23 1271.05 1299.33 1253.3L1268.03 1253.49C1267.84 1241.73 1267.97 1229.58 1267.95 1217.78L1299.54 1217.77C1299.21 1203.86 1299.23 1189.94 1299.62 1176.04zM1216.47 1214.27C1225.29 1213.66 1231.4 1214.93 1239.98 1216.57L1239.9 1260.16C1210.58 1251.24 1179.85 1257.9 1171.56 1292.38 1168.81 1303.84 1169.94 1319.66 1169.97 1331.77L1170.14 1387.5C1156.35 1387.18 1141.98 1387.44 1128.14 1387.51 1127.43 1367.95 1127.89 1345.73 1127.89 1325.98L1127.89 1217.91 1166.21 1217.96C1166.9 1227.99 1166.98 1237.7 1167.12 1247.73 1179.3 1226.1 1192.32 1218.05 1216.47 1214.27z" data-c-fill="003e7f"/><path fill="rgb(230,43,45)" d="M 1441.99 1512.03 C 1458.21 1511.82 1587.44 1510.1 1592.39 1513.22 C 1594.75 1514.71 1595.04 1515.62 1595.67 1518.12 C 1592.52 1525.71 1585.15 1524.25 1578.36 1524.08 C 1578.12 1550.21 1578.88 1577.63 1578.87 1604.02 L 1562.87 1604.05 L 1562.98 1524.12 C 1554.73 1524.01 1546.28 1524.12 1538.01 1524.13 L 1538.07 1567.5 L 1538.1 1604.11 L 1522.19 1603.95 C 1521.97 1591.68 1522.11 1578.92 1522.08 1566.61 C 1506.55 1566.38 1491.02 1566.61 1475.51 1567.32 C 1483.22 1576.32 1492.74 1589.47 1500.18 1599.12 L 1486.57 1607.83 C 1476.37 1593.78 1465.65 1580.14 1455.57 1566 C 1448.05 1555.46 1452.61 1553.1 1461.83 1547.34 C 1474.22 1557.57 1476.14 1555.22 1480.24 1540.48 C 1473.83 1509.6 1455.42 1531.59 1443.16 1522.38 C 1441.25 1519.37 1441.87 1515.73 1441.99 1512.03 z" data-c-fill="e62b2d"/><path fill="#f7f7f7" d="M 1492.32 1524.33 C 1501.7 1523.86 1512.55 1524.15 1522.03 1524.18 C 1522.06 1533.46 1522.2 1542.84 1521.75 1552.1 L 1494.43 1552.15 C 1497.17 1539.71 1496.27 1535.9 1492.32 1524.33 z" data-c-fill="f7f6f4" fill-opacity="1"/><path fill="rgb(230,43,45)" d="M1678.73 1474.16C1704.24 1475.57 1708.01 1493.55 1715.26 1513.84 1720.36 1513.8 1727.68 1512.81 1731.43 1515.09 1733.63 1518.05 1733.01 1522.07 1732.96 1525.96L1717.06 1526.07 1717.21 1606.2 1700.84 1606.2 1700.97 1526.2C1692.82 1525.93 1684.16 1526.1 1675.96 1526.11L1675.9 1606.02 1659.79 1606.1 1659.8 1583.57C1637.73 1598.98 1607.15 1595.57 1595.09 1569.05 1592.52 1563.38 1592.44 1557.88 1592.08 1551.77 1601.46 1552.06 1607.58 1552.05 1616.73 1550.31 1622.49 1547.59 1626.34 1545.56 1628.19 1538.67 1630.54 1529.95 1621.23 1517.91 1612.78 1526.45 1610.93 1528.32 1610.82 1529.64 1610.93 1532.1 1614.01 1536.4 1618.08 1541.59 1613.13 1546.2 1607.54 1546.16 1598.68 1539.66 1597.32 1534.31 1592.93 1515.37 1617.39 1505.57 1632.15 1514.96 1645.11 1523.21 1646.92 1535.18 1639.02 1548.36 1632.71 1558.88 1621.97 1562.63 1610.41 1565.1 1624.41 1586.05 1644.27 1579.01 1659.56 1563.94L1659.94 1513.85 1699.95 1513.28C1698.23 1506.94 1689.78 1477.46 1673.91 1491 1670.19 1494.17 1673.46 1505.26 1675.07 1510.09 1669.85 1510.25 1666.49 1510.58 1661.31 1509.65 1659.25 1508 1657.02 1505.56 1656.89 1502.83 1656.15 1486.92 1664.31 1477.22 1678.73 1474.16zM1740.88 1584.58C1744.99 1582.66 1749.82 1583.15 1753.47 1585.84 1757.12 1588.53 1759.01 1593 1758.4 1597.5 1757.79 1601.99 1754.77 1605.8 1750.53 1607.42 1744.29 1609.8 1737.29 1606.81 1734.68 1600.66 1732.08 1594.51 1734.82 1587.4 1740.88 1584.58z" data-c-fill="e62b2d"/></svg>